<?xml version="1.0" encoding="utf-8"?>
<!-- Generator: Adobe Illustrator 16.0.3, SVG Export Plug-In . SVG Version: 6.00 Build 0)  -->
<!DOCTYPE svg PUBLIC "-//W3C//DTD SVG 1.1//EN" "http://www.w3.org/Graphics/SVG/1.1/DTD/svg11.dtd">
<svg version="1.1" id="Layer_1" xmlns="http://www.w3.org/2000/svg" xmlns:xlink="http://www.w3.org/1999/xlink" x="0px" y="0px"
	 width="241px" height="45.333px" viewBox="0 0 241 45.333" enable-background="new 0 0 241 45.333" xml:space="preserve">
<polygon fill="#B3B5B8" points="39.028,7.394 39.028,16.928 68.402,16.928 68.402,45.052 77.912,45.052 77.912,7.394 "/>
<g>
	<rect x="0.145" y="0.907" fill="#003468" width="38.884" height="44.145"/>
</g>
<g>
	<polygon fill="#003468" points="108.814,13.947 101.856,13.947 101.856,7.376 99.114,7.376 99.114,23.59 101.856,23.59 
		101.856,16.435 108.814,16.435 108.814,23.59 111.556,23.59 111.556,7.376 108.814,7.376 	"/>
	<path fill="#003468" d="M130.295,7.786l-1.204-0.942l-1.192,1.563c-1.263-0.852-2.799-1.301-4.461-1.301
		c-4.643,0-7.763,3.366-7.763,8.375c0,2.51,0.729,4.611,2.11,6.097l-1.304,1.703l1.267,0.872l1.204-1.569
		c1.23,0.847,2.738,1.276,4.485,1.276c4.716,0,7.764-3.289,7.764-8.379c0-2.459-0.737-4.552-2.135-6.069L130.295,7.786z
		 M126.283,10.504l-6.745,8.801c-0.638-1.007-0.987-2.349-0.987-3.824c0-2.931,1.499-5.888,4.848-5.888l0.134,0
		C124.582,9.593,125.506,9.899,126.283,10.504z M128.324,15.481c0,2.718-1.279,5.891-4.887,5.891c-1.111,0-2.09-0.313-2.847-0.909
		l6.725-8.777C127.969,12.708,128.324,14.042,128.324,15.481z"/>
	<path fill="#003468" d="M141.867,16.839h3.285v4.312c-0.023,0.005-0.047,0.011-0.071,0.016c-0.451,0.102-0.919,0.206-2.177,0.206
		c-3.259,0-5.623-2.478-5.623-5.891c0-3.467,2.357-5.888,5.734-5.888c1.854,0,3.018,0.291,4.151,1.039l0.358,0.236l0.227-2.895
		l-0.185-0.064c-1.236-0.431-2.305-0.803-4.663-0.803c-5.005,0-8.5,3.417-8.5,8.31c0,5.13,3.327,8.444,8.477,8.444
		c1.865,0,3.45-0.233,4.844-0.713l0.172-0.059v-8.602h-6.029V16.839z"/>
	<path fill="#003468" d="M161.328,18.926c0-3.093-2.311-4.214-4.167-5.114c-1.362-0.661-2.538-1.232-2.538-2.378
		c0-1.661,1.729-1.84,2.473-1.84c1.117,0,1.693,0.184,2.834,0.636l0.297,0.117l0.392-2.593l-0.197-0.07
		c-1.028-0.367-2.272-0.577-3.413-0.577c-3.196,0-5.262,1.778-5.262,4.529c0,2.804,2.078,3.787,3.911,4.654
		c1.499,0.709,2.794,1.322,2.794,2.772c0,1.695-1.68,2.311-2.809,2.311c-1.248,0-2.722-0.57-3.143-0.746l-0.313-0.13l-0.282,2.635
		l0.194,0.064c0.98,0.321,2.122,0.665,3.276,0.665C159.158,23.86,161.328,22.062,161.328,18.926z"/>
	<polygon fill="#003468" points="170.455,15.059 178.04,7.376 174.354,7.376 168.055,13.909 168.055,7.376 165.313,7.376 
		165.313,23.59 168.055,23.59 168.055,16.299 174.64,23.59 178.606,23.59 	"/>
	<path fill="#003468" d="M196.168,15.481c0-5.01-3.119-8.375-7.762-8.375c-4.645,0-7.766,3.366-7.766,8.375
		c0,5.09,3.049,8.379,7.766,8.379C193.121,23.86,196.168,20.571,196.168,15.481z M193.293,15.481c0,2.718-1.279,5.891-4.887,5.891
		s-4.887-3.173-4.887-5.891c0-2.931,1.499-5.888,4.848-5.888h0.078C191.794,9.593,193.293,12.551,193.293,15.481z"/>
	<polygon fill="#003468" points="202.896,7.376 200.154,7.376 200.154,23.59 209.424,23.59 209.424,21.102 202.896,21.102 	"/>
	<polygon fill="#003468" points="212.805,23.59 222.049,23.59 222.049,21.102 215.549,21.102 215.549,16.435 221.469,16.435 
		221.469,13.947 215.549,13.947 215.549,9.863 222.049,9.863 222.049,7.376 212.805,7.376 	"/>
	<polygon fill="#003468" points="239.148,23.59 239.148,7.376 236.406,7.376 236.406,19.363 229.881,7.376 226.438,7.376 
		226.438,23.59 229.18,23.59 229.18,11.33 235.883,23.59 	"/>
	<rect x="99.125" y="35.374" fill="#003468" width="1.632" height="9.713"/>
	<path fill="#003468" d="M125.891,35.374h-1.601l-4.118,9.713h1.725l0.951-2.377h4.39l0.952,2.377h1.777l-4.04-9.624L125.891,35.374
		z M126.693,41.314h-3.3l1.649-4.137L126.693,41.314z"/>
	<path fill="#003468" d="M126.582,33.695c0-0.825-0.692-1.521-1.513-1.521c-0.834,0-1.512,0.683-1.512,1.521
		c0,0.824,0.692,1.521,1.512,1.521C125.89,35.216,126.582,34.52,126.582,33.695z M125.069,33.003c0.359,0,0.688,0.33,0.688,0.692
		c0,0.35-0.341,0.692-0.688,0.692c-0.366,0-0.686-0.323-0.686-0.692C124.383,33.333,124.71,33.003,125.069,33.003z"/>
	<polygon fill="#003468" points="142.646,35.374 141.018,35.374 141.018,45.087 146.563,45.087 146.563,43.607 142.646,43.607 	"/>
	<polygon fill="#003468" points="157.873,45.087 163.404,45.087 163.404,43.607 159.502,43.607 159.502,40.794 163.057,40.794 
		163.057,39.314 159.502,39.314 159.502,36.851 163.404,36.851 163.404,35.374 157.873,35.374 	"/>
	<path fill="#003468" d="M178.007,39.232c-0.82-0.397-1.528-0.741-1.528-1.435c0-1.001,1.042-1.109,1.49-1.109
		c0.67,0,1.017,0.11,1.705,0.381l0.169,0.066l0.234-1.54l-0.113-0.04c-0.616-0.218-1.363-0.343-2.048-0.343
		c-1.911,0-3.146,1.063-3.146,2.708c0,1.677,1.243,2.266,2.341,2.785c0.901,0.428,1.681,0.796,1.681,1.671
		c0,1.023-1.013,1.396-1.693,1.396c-0.746,0-1.634-0.344-1.888-0.449l-0.179-0.074l-0.168,1.565l0.111,0.036
		c0.616,0.202,1.274,0.398,1.961,0.398c2.267,0,3.566-1.076,3.566-2.953C180.502,40.444,179.118,39.772,178.007,39.232z"/>
	<path fill="#003468" d="M198.047,40.864c0,1.983-0.683,2.908-2.148,2.908s-2.148-0.925-2.148-2.908v-5.49h-1.629v5.666
		c0,2.675,1.377,4.209,3.777,4.209s3.777-1.534,3.777-4.209v-5.666h-1.629V40.864z"/>
	<polygon fill="#003468" points="217.826,42.584 213.9,35.374 211.844,35.374 211.844,45.087 213.473,45.087 213.473,37.709 
		217.51,45.087 219.457,45.087 219.457,35.374 217.826,35.374 	"/>
	<path fill="#003468" d="M234.438,35.374h-2.906v9.713h2.906c3.262,0,5.133-1.8,5.133-4.938
		C239.57,37.338,237.46,35.374,234.438,35.374z M237.861,40.204c0,2.29-1.125,3.403-3.438,3.403h-1.264v-6.757h1.424
		C236.544,36.851,237.861,38.198,237.861,40.204z"/>
</g>
<rect id="_x3C_Slice_x3E_" x="239.191" y="8344.667" fill="none" width="0" height="0"/>
<rect id="_x3C_Slice_x3E__1_" x="239.191" y="-8038.333" fill="none" width="0" height="0"/>
<rect id="_x3C_Slice_x3E__2_" x="-0.333" y="45.333" fill="none" width="0.333" height="8299.334"/>
<rect id="_x3C_Slice_x3E__3_" y="45.333" fill="none" width="240" height="8299.334"/>
<rect id="_x3C_Slice_x3E__4_" x="240" y="45.333" fill="none" width="1" height="8299.334"/>
<rect id="_x3C_Slice_x3E__5_" x="-0.333" fill="none" width="0.333" height="45.333"/>
<rect id="_x3C_Slice_x3E__6_" fill="none" width="240" height="45.333"/>
<rect id="_x3C_Slice_x3E__7_" x="240" fill="none" width="1" height="45.333"/>
<rect id="_x3C_Slice_x3E__8_" x="-0.333" y="-8038.333" fill="none" width="0.333" height="8038.333"/>
<rect id="_x3C_Slice_x3E__9_" y="-8038.333" fill="none" width="240" height="8038.333"/>
<rect id="_x3C_Slice_x3E__10_" x="240" y="-8038.333" fill="none" width="1" height="8038.333"/>
</svg>
